<?xml version="1.0" standalone="no"?>
<!DOCTYPE svg PUBLIC "-//W3C//DTD SVG 20010904//EN"
 "http://www.w3.org/TR/2001/REC-SVG-20010904/DTD/svg10.dtd">
<svg version="1.0" xmlns="http://www.w3.org/2000/svg"
 width="300.000000pt" height="60.000000pt" viewBox="0 0 300.000000 60.000000"
 preserveAspectRatio="xMidYMid meet">
<metadata>
Created by potrace 1.10, written by Peter Selinger 2001-2011
</metadata>
<g transform="translate(0.000000,60.000000) scale(0.100000,-0.100000)"
fill="#000000" stroke="none">
<path d="M104 570 c-61 -19 -128 -130 -79 -130 10 0 15 -10 15 -34 0 -53 35
-101 113 -156 75 -53 98 -81 89 -112 -7 -29 -21 -21 -28 16 -9 53 -44 80 -95
73 -41 -5 -67 -29 -80 -72 -3 -11 -11 -19 -17 -17 -17 3 -15 -34 3 -68 17 -32
61 -60 96 -60 17 0 19 3 10 14 -10 12 -8 17 8 25 27 15 38 14 69 -8 19 -13 52
-21 109 -25 81 -6 82 -6 117 25 48 42 56 78 56 254 0 137 -2 155 -22 195 -39
75 -59 84 -206 87 -70 1 -141 -2 -158 -7z m48 -62 c-23 -23 -14 -75 16 -98 37
-28 151 -110 155 -110 1 0 1 49 -1 110 l-3 110 57 0 c45 0 55 -3 46 -12 -8 -8
-12 -66 -12 -194 0 -169 -1 -183 -21 -208 -11 -14 -34 -33 -49 -41 -33 -17
-126 -20 -135 -5 -3 6 2 10 13 10 30 0 64 44 65 84 1 44 -19 66 -112 126 -79
51 -101 81 -101 140 0 33 6 48 29 71 16 16 37 29 47 29 14 0 15 -3 6 -12z
m128 -2 c15 -19 9 -56 -11 -69 -9 -5 -28 -7 -42 -3 -48 12 -32 86 19 86 12 0
27 -7 34 -14z m-119 -316 c30 -17 26 -75 -7 -97 -24 -15 -29 -15 -53 -2 -70
39 -11 137 60 99z"/>
<path d="M577 492 c-22 -24 -22 -78 -1 -86 9 -3 27 -6 40 -6 14 0 24 -6 24
-14 0 -22 -31 -28 -57 -10 -28 18 -42 11 -27 -14 15 -23 77 -28 98 -7 32 32 7
75 -45 75 -33 0 -35 6 -14 38 13 18 19 20 35 10 24 -15 37 -4 20 17 -17 20
-53 19 -73 -3z"/>
<path d="M1163 498 c2 -8 17 -12 36 -10 31 2 31 2 31 -47 0 -71 -41 -107 -52
-46 -4 26 -22 26 -26 -1 -6 -43 60 -73 87 -40 17 20 25 78 17 120 -7 35 -8 36
-52 36 -32 0 -44 -4 -41 -12z"/>
<path d="M1990 500 c0 -5 5 -10 11 -10 8 0 10 -24 7 -75 -3 -70 -2 -75 17 -75
19 0 20 5 17 75 -3 51 -1 75 7 75 6 0 11 5 11 10 0 6 -16 10 -35 10 -19 0 -35
-4 -35 -10z"/>
<path d="M2230 456 c0 -17 -7 -26 -25 -30 -15 -4 -27 -16 -31 -31 -10 -42 1
-55 43 -51 l38 4 3 66 c2 54 0 66 -13 66 -9 0 -15 -9 -15 -24z"/>
<path d="M690 428 c0 -24 -3 -53 -6 -65 -5 -17 -2 -23 10 -23 11 0 16 9 16 30
0 17 5 30 10 30 6 0 10 -13 10 -30 0 -20 5 -30 15 -30 9 0 15 9 15 24 0 37
-10 56 -31 56 -14 0 -19 7 -19 25 0 14 -4 25 -10 25 -5 0 -10 -19 -10 -42z"/>
<path d="M2483 453 c-4 -10 -10 -20 -14 -23 -4 -3 -4 -23 0 -45 5 -31 11 -41
29 -43 13 -2 25 3 28 13 9 22 -2 30 -21 15 -13 -10 -15 -9 -15 8 0 12 8 26 18
31 14 9 15 12 3 20 -7 5 -11 13 -7 19 3 6 2 13 -4 17 -6 3 -13 -2 -17 -12z"/>
<path d="M2651 405 c0 -46 3 -65 12 -65 8 0 12 20 12 65 0 42 -4 65 -11 65 -8
0 -12 -24 -13 -65z"/>
<path d="M780 389 c0 -27 5 -49 10 -49 6 0 10 11 10 24 0 27 31 59 37 39 8
-22 25 -14 21 10 -2 18 -10 22 -40 23 l-38 1 0 -48z"/>
<path d="M892 428 c-17 -17 -15 -63 2 -78 19 -15 58 -9 64 9 3 10 -2 12 -21 7
-14 -3 -29 -2 -32 4 -4 6 5 10 20 10 30 0 43 24 25 45 -15 18 -42 19 -58 3z"/>
<path d="M996 424 c-38 -38 -3 -93 50 -80 32 8 31 30 -1 24 -14 -3 -28 -1 -31
3 -3 5 4 9 16 9 25 0 37 25 20 45 -16 19 -35 19 -54 -1z"/>
<path d="M1495 420 c-35 -39 3 -91 55 -75 27 9 25 27 -2 25 -36 -3 -45 1 -18
9 28 8 39 39 18 52 -20 13 -33 11 -53 -11z"/>
<path d="M1590 389 c0 -27 5 -49 10 -49 6 0 10 8 10 18 0 25 30 61 36 45 9
-22 26 -14 22 10 -2 18 -10 22 -40 23 l-38 1 0 -48z"/>
<path d="M1795 432 c-3 -3 -5 -25 -5 -49 0 -32 4 -43 15 -43 9 0 15 9 15 23 0
12 5 29 10 37 7 11 10 5 10 -23 0 -46 22 -46 31 -1 l6 29 4 -28 c5 -32 22 -41
27 -14 7 37 -7 68 -31 67 -12 -1 -24 -1 -27 0 -13 5 -51 6 -55 2z"/>
<path d="M2288 434 c-13 -12 -9 -71 5 -82 7 -6 23 -9 35 -5 18 4 22 12 22 49
0 53 -15 58 -24 9 -9 -45 -24 -45 -28 1 -2 20 -6 32 -10 28z"/>
<path d="M2375 419 c-8 -23 0 -35 30 -42 15 -4 13 -5 -7 -6 -28 -1 -37 -14
-18 -26 5 -3 21 -3 35 1 32 8 37 54 5 54 -11 0 -20 5 -20 10 0 6 9 10 20 10
11 0 20 5 20 10 0 6 -13 10 -29 10 -21 0 -32 -6 -36 -21z"/>
<path d="M2550 389 c0 -27 5 -49 10 -49 6 0 10 8 10 18 0 10 6 27 14 38 15 19
15 19 31 -1 15 -19 15 -19 13 10 -3 27 -6 30 -40 31 l-38 1 0 -48z"/>
<path d="M2704 415 c-15 -23 -15 -27 0 -51 13 -18 24 -24 43 -22 15 2 29 9 31
17 3 10 -2 12 -21 7 -14 -3 -29 -2 -32 4 -3 6 4 10 18 10 30 0 42 24 21 45
-22 22 -41 19 -60 -10z"/>
<path d="M2804 425 c-9 -23 2 -43 28 -48 20 -4 20 -4 -4 -6 -28 -1 -37 -14
-18 -26 5 -3 21 -3 35 1 32 8 37 54 5 54 -11 0 -20 5 -20 10 0 6 9 10 20 10
11 0 20 5 20 10 0 16 -60 12 -66 -5z"/>
<path d="M1293 418 c-33 -41 -17 -79 30 -74 30 3 32 6 35 45 3 39 2 41 -26 41
-16 0 -34 -6 -39 -12z"/>
<path d="M1390 416 c-20 -26 -8 -61 23 -64 28 -3 31 -9 21 -37 -6 -15 -8 -15
-24 0 -13 11 -20 13 -25 5 -9 -14 13 -40 34 -40 30 0 41 23 41 87 0 63 0 63
-29 63 -16 0 -34 -7 -41 -14z"/>
<path d="M1700 409 c-6 -11 -10 -30 -8 -42 2 -18 10 -22 41 -23 l37 -1 0 43
c0 42 -1 44 -30 44 -19 0 -33 -7 -40 -21z"/>
<path d="M2070 384 c0 -41 16 -61 24 -31 2 6 7 21 12 32 6 18 8 17 13 -9 9
-44 31 -45 31 -2 0 39 -11 50 -52 52 -27 2 -28 -1 -28 -42z"/>
</g>
</svg>
